<svg width="31" height="22" viewBox="0 0 31 22" fill="none" xmlns="http://www.w3.org/2000/svg">
<path d="M7.88721 13.272C5.59033 13.272 3.76221 11.4438 3.76221 9.14697C3.76221 6.89697 5.59033 5.02197 7.88721 5.02197C10.1372 5.02197 12.0122 6.89697 12.0122 9.14697C12.0122 11.4438 10.1372 13.272 7.88721 13.272ZM7.88721 7.27197C6.80908 7.27197 6.01221 8.11572 6.01221 9.14697C6.01221 10.1782 6.80908 11.022 7.88721 11.022C8.87158 11.022 9.76221 10.1782 9.76221 9.14697C9.76221 8.11572 8.87158 7.27197 7.88721 7.27197ZM24.7622 5.02197C27.6216 5.02197 30.0122 7.4126 30.0122 10.272V20.397C30.0122 21.0532 29.4966 21.522 28.8872 21.522C28.231 21.522 27.7622 21.0532 27.7622 20.397V17.022H2.26221V20.397C2.26221 21.0532 1.65283 21.522 1.09033 21.522C0.480957 21.522 0.012207 21.0532 0.012207 20.397V1.64697C0.012207 1.0376 0.480957 0.521973 1.13721 0.521973C1.74658 0.521973 2.26221 1.0376 2.26221 1.64697V14.772H13.5122V5.77197C13.5122 5.39697 13.8403 5.02197 14.2622 5.02197H24.7622ZM27.7622 14.772V10.272C27.7622 8.63135 26.4028 7.27197 24.7622 7.27197H15.7622V14.772H27.7622Z" fill="black"/>
</svg>
