<svg width="19" height="25" viewBox="0 0 19 25" fill="none" xmlns="http://www.w3.org/2000/svg">
<path d="M13.9805 0.0578613C14.8711 0.0578613 15.5273 0.901611 15.293 1.74536L12.7617 10.511H16.793C17.6836 10.511 18.4336 11.261 18.4336 12.1516C18.4336 12.6672 18.1992 13.0891 17.8242 13.4172L5.68359 23.7297C5.44922 23.9172 5.16797 24.011 4.83984 24.011C3.94922 24.011 3.29297 23.1672 3.52734 22.3235L6.05859 13.511H1.98047C1.13672 13.511 0.433594 12.8079 0.433594 11.9641C0.433594 11.4954 0.621094 11.0266 0.949219 10.7454L13.1367 0.339111C13.3711 0.151611 13.6523 0.0109863 13.9805 0.0109863V0.0578613ZM12.293 3.99536L3.80859 11.261H7.55859C7.88672 11.261 8.21484 11.4485 8.44922 11.7297C8.63672 12.011 8.73047 12.386 8.63672 12.7141L6.52734 20.0735L15.1055 12.761H11.3086C10.9336 12.761 10.6055 12.6204 10.3711 12.3391C10.1836 12.0579 10.0898 11.6829 10.1836 11.3547L12.293 3.99536Z" fill="black"/>
</svg>
