<svg width="28" height="16" viewBox="0 0 28 16" fill="none" xmlns="http://www.w3.org/2000/svg">
<path d="M27.6323 4.89381C27.6323 6.11256 27.0698 7.23756 26.0854 7.98756C27.0698 8.78443 27.6323 9.90943 27.6323 11.1282V11.2688C27.6323 13.2844 26.1792 15.0188 24.2104 15.4407C22.0542 15.8626 19.8979 14.6907 19.1948 12.7219C19.1011 12.4407 18.7729 12.1126 18.5386 12.1126H9.6792C9.44482 12.1126 9.1167 12.3938 9.02295 12.7219C8.41357 14.4094 6.72607 15.4876 4.89795 15.4876C4.6167 15.4876 4.33545 15.4876 4.00732 15.4407C2.03857 15.0188 0.632324 13.2844 0.632324 11.3157V11.1282C0.632324 9.90943 1.14795 8.78443 2.13232 7.98756C1.14795 7.23756 0.632324 6.11256 0.632324 4.89381V4.70631C0.632324 2.73756 2.03857 1.00318 4.00732 0.581306C6.16357 0.159431 8.31982 1.33131 9.02295 3.30006C9.1167 3.58131 9.44482 3.86256 9.6792 3.86256H18.5386C18.7729 3.86256 19.0542 3.58131 19.1948 3.30006C19.8979 1.33131 22.0542 0.159431 24.2104 0.581306C26.1792 1.00318 27.6323 2.73756 27.6323 4.70631V4.89381ZM25.3823 4.89381V4.70631C25.3823 3.81568 24.6792 2.97193 23.7417 2.78443C22.7104 2.59693 21.6323 3.11256 21.3042 4.05006C20.9292 5.03443 19.9448 6.11256 18.5386 6.11256H9.6792C8.27295 6.11256 7.2417 5.03443 6.91357 4.05006C6.63232 3.25318 5.83545 2.73756 4.94482 2.73756C4.75732 2.73756 4.6167 2.78443 4.47607 2.78443C3.53857 2.97193 2.88232 3.81568 2.88232 4.70631V4.89381C2.88232 5.59693 3.3042 6.20631 3.96045 6.53443C4.56982 6.81568 4.94482 7.37818 4.94482 7.98756C4.94482 8.64381 4.56982 9.20631 3.96045 9.48756C3.3042 9.81568 2.88232 10.4251 2.88232 11.1282V11.2688C2.88232 12.2063 3.53857 13.0032 4.47607 13.1907C5.50732 13.4251 6.58545 12.9094 6.91357 11.9719C7.28857 10.9407 8.27295 9.86256 9.6792 9.86256H18.5386C19.9448 9.86256 20.9761 10.9876 21.3042 11.9719C21.6323 12.9094 22.7104 13.4251 23.7417 13.1907C24.6792 13.0501 25.3823 12.2063 25.3823 11.3157V11.1282C25.3823 10.4251 24.9136 9.81568 24.2573 9.48756C23.6479 9.20631 23.2729 8.64381 23.2729 8.03443C23.2729 7.37818 23.6479 6.81568 24.2573 6.53443C24.9136 6.20631 25.3823 5.59693 25.3823 4.89381Z" fill="black"/>
</svg>
