<svg width="25" height="25" viewBox="0 0 25 25" fill="none" xmlns="http://www.w3.org/2000/svg">
<path d="M24.0518 20.4485C24.3799 21.6204 23.6768 22.8391 22.458 23.1672L19.5518 23.9641C19.3643 24.011 19.1768 24.011 18.9893 24.011C17.958 24.011 17.0674 23.3547 16.7861 22.3704L12.8955 7.79224V21.761C12.8955 23.0266 11.8643 24.011 10.6455 24.011H7.64551C7.22363 24.011 6.84863 23.9172 6.52051 23.7297C6.14551 23.9172 5.77051 24.011 5.39551 24.011H2.39551C1.12988 24.011 0.145508 23.0266 0.145508 21.761V2.26099C0.145508 1.04224 1.12988 0.0109863 2.39551 0.0109863H5.39551C5.77051 0.0109863 6.14551 0.151611 6.52051 0.339111C6.84863 0.151611 7.22363 0.0109863 7.64551 0.0109863H10.6455C11.4893 0.0109863 12.2393 0.526611 12.6143 1.22974C12.8018 1.08911 13.083 0.948486 13.3643 0.901611L16.2236 0.104736C16.458 0.0578613 16.6455 0.0109863 16.833 0.0109863C17.8174 0.0109863 18.708 0.714111 18.9893 1.69849L24.0518 20.4485ZM10.6455 2.26099H7.64551V4.51099H10.6455V2.26099ZM7.64551 6.76099V17.261H10.6455V6.76099H7.64551ZM5.39551 17.261V6.76099H2.39551V17.261H5.39551ZM5.39551 2.26099H2.39551V4.51099H5.39551V2.26099ZM2.39551 21.761H5.39551V19.511H2.39551V21.761ZM7.64551 21.761H10.6455V19.511L7.64551 19.5579V21.761ZM13.9268 3.05786L14.4893 5.21411L17.3955 4.41724L16.833 2.30786L13.9268 3.05786ZM15.0986 7.37036L17.8174 17.4485L20.7236 16.6985L18.0049 6.62036L15.0986 7.37036ZM18.9893 21.8079L21.8955 21.011L21.2861 18.8547L18.3799 19.6516L18.9893 21.8079Z" fill="black"/>
</svg>
