<svg width="26" height="22" viewBox="0 0 26 22" fill="none" xmlns="http://www.w3.org/2000/svg">
<path d="M3.88232 5.01099H3.9292C4.3042 3.32349 5.8042 2.01099 7.63232 2.01099C8.28857 2.01099 8.94482 2.24536 9.50732 2.57349C10.1636 1.35474 11.4292 0.510986 12.8823 0.510986C14.2886 0.510986 15.5542 1.35474 16.2104 2.57349C16.7729 2.24536 17.4292 2.01099 18.1323 2.01099C19.9136 2.01099 21.4136 3.32349 21.7886 5.01099C21.7886 5.01099 21.8354 5.01099 21.8823 5.01099C23.5229 5.01099 24.8823 6.37036 24.8823 8.01099C24.8823 8.57349 24.6948 9.08911 24.4604 9.51099H1.25732C1.02295 9.08911 0.882324 8.57349 0.882324 8.01099C0.882324 6.37036 2.19482 5.01099 3.88232 5.01099ZM24.3198 11.011C25.0229 11.011 25.6323 11.6204 25.6323 12.3235C25.6323 15.7454 23.3823 18.6516 20.2886 19.636C20.3354 19.7766 20.3823 19.9172 20.3823 20.011C20.3823 20.8547 19.6792 21.511 18.8823 21.511H6.88232C6.03857 21.511 5.38232 20.8547 5.38232 20.011C5.38232 19.9172 5.38232 19.7766 5.4292 19.636C2.33545 18.6516 0.132324 15.7454 0.132324 12.3235C0.132324 11.6204 0.694824 11.011 1.39795 11.011H24.3198ZM23.2886 13.261H2.4292C2.8042 15.2766 4.21045 16.8704 6.13232 17.5266C6.9292 17.761 7.4917 18.4641 7.63232 19.261H18.0854C18.2261 18.4641 18.7886 17.761 19.5854 17.5266C21.5073 16.8704 22.9136 15.2766 23.2886 13.261Z" fill="black"/>
</svg>
