<svg width="19" height="25" viewBox="0 0 19 25" fill="none" xmlns="http://www.w3.org/2000/svg">
<path d="M0.788574 3.02197C0.788574 1.38135 2.10107 0.0219727 3.78857 0.0219727H15.7886C17.4292 0.0219727 18.7886 1.38135 18.7886 3.02197V15.022C18.7886 16.7095 17.4292 18.022 15.7886 18.022H12.7886V21.022C12.7886 22.7095 11.4292 24.022 9.78857 24.022C8.10107 24.022 6.78857 22.7095 6.78857 21.022V18.022H3.78857C2.10107 18.022 0.788574 16.7095 0.788574 15.022V3.02197ZM16.5386 13.522V3.02197C16.5386 2.64697 16.1636 2.27197 15.7886 2.27197H11.2886V5.27197C11.2886 5.69385 10.9136 6.02197 10.5386 6.02197C10.1167 6.02197 9.78857 5.69385 9.78857 5.27197V2.27197H6.78857V6.77197C6.78857 7.19385 6.41357 7.52197 6.03857 7.52197C5.6167 7.52197 5.28857 7.19385 5.28857 6.77197V2.27197H3.78857C3.3667 2.27197 3.03857 2.64697 3.03857 3.02197V13.522H16.5386ZM9.78857 21.772C10.1636 21.772 10.5386 21.4438 10.5386 21.022C10.5386 20.647 10.1636 20.272 9.78857 20.272C9.3667 20.272 9.03857 20.647 9.03857 21.022C9.03857 21.4438 9.3667 21.772 9.78857 21.772Z" fill="black"/>
</svg>
