<svg width="19" height="25" viewBox="0 0 19 25" fill="none" xmlns="http://www.w3.org/2000/svg">
<path d="M4.91357 4.89697C4.91357 4.52197 5.2417 4.14697 5.66357 4.14697H7.91357C8.28857 4.14697 8.66357 4.52197 8.66357 4.89697V7.14697C8.66357 7.56885 8.28857 7.89697 7.91357 7.89697H5.66357C5.2417 7.89697 4.91357 7.56885 4.91357 7.14697V4.89697ZM13.9136 4.14697C14.2886 4.14697 14.6636 4.52197 14.6636 4.89697V7.14697C14.6636 7.56885 14.2886 7.89697 13.9136 7.89697H11.6636C11.2417 7.89697 10.9136 7.56885 10.9136 7.14697V4.89697C10.9136 4.52197 11.2417 4.14697 11.6636 4.14697H13.9136ZM4.91357 10.897C4.91357 10.522 5.2417 10.147 5.66357 10.147H7.91357C8.28857 10.147 8.66357 10.522 8.66357 10.897V13.147C8.66357 13.5688 8.28857 13.897 7.91357 13.897H5.66357C5.2417 13.897 4.91357 13.5688 4.91357 13.147V10.897ZM13.9136 10.147C14.2886 10.147 14.6636 10.522 14.6636 10.897V13.147C14.6636 13.5688 14.2886 13.897 13.9136 13.897H11.6636C11.2417 13.897 10.9136 13.5688 10.9136 13.147V10.897C10.9136 10.522 11.2417 10.147 11.6636 10.147H13.9136ZM0.788574 3.02197C0.788574 1.38135 2.10107 0.0219727 3.78857 0.0219727H15.7886C17.4292 0.0219727 18.7886 1.38135 18.7886 3.02197V21.022C18.7886 22.7095 17.4292 24.022 15.7886 24.022H3.78857C2.10107 24.022 0.788574 22.7095 0.788574 21.022V3.02197ZM3.03857 3.02197V21.022C3.03857 21.4438 3.3667 21.772 3.78857 21.772H7.53857V18.772C7.53857 17.5532 8.52295 16.522 9.78857 16.522C11.0073 16.522 12.0386 17.5532 12.0386 18.772V21.772H15.7886C16.1636 21.772 16.5386 21.4438 16.5386 21.022V3.02197C16.5386 2.64697 16.1636 2.27197 15.7886 2.27197H3.78857C3.3667 2.27197 3.03857 2.64697 3.03857 3.02197Z" fill="black"/>
</svg>
