<svg width="28" height="24" viewBox="0 0 28 24" fill="none" xmlns="http://www.w3.org/2000/svg">
<path d="M21.8244 5.25635C21.8244 5.67822 21.4494 6.00635 21.0744 6.00635C20.6526 6.00635 20.3244 5.67822 20.3244 5.25635C20.3244 4.88135 20.6526 4.50635 21.0744 4.50635C21.4494 4.50635 21.8244 4.88135 21.8244 5.25635ZM4.05882 0.428223C4.48069 -0.0405273 5.18382 -0.0874023 5.65257 0.287598L14.5119 7.74072L15.6838 0.709473C15.7307 0.334473 16.1057 0.0532227 16.5276 0.0532227C16.7619 0.0532227 16.9963 0.146973 17.1838 0.381348L18.0744 1.50635H21.6369C22.1994 1.50635 22.8088 1.7876 23.2307 2.20947L24.0744 3.00635H25.5744C26.7932 3.00635 27.8244 4.0376 27.8244 5.25635V6.75635C27.8244 9.24072 25.8088 11.2563 23.3244 11.2563H21.1682L21.0744 12.0063V21.0063C21.0744 22.6938 19.7151 24.0063 18.0744 24.0063H17.3244C15.6369 24.0063 14.2776 22.6938 14.2776 21.0063V17.8188C13.8088 17.9126 13.2932 18.0063 12.7776 18.0063C12.6838 18.0063 12.5432 18.0063 12.4026 18.0063C12.3088 18.0063 12.1682 18.0063 12.0276 18.0063C11.5588 18.0063 11.0432 17.9126 10.5276 17.8188V21.0063C10.5276 22.6938 9.21507 24.0063 7.52757 24.0063H6.77757C5.13694 24.0063 3.77757 22.6938 3.77757 21.0063V10.5063C3.77757 10.4595 3.82444 10.4126 3.82444 10.3657C3.77757 10.3188 3.73069 10.3188 3.63694 10.3188C2.37132 9.8501 1.34007 8.77197 1.01194 7.4126L0.824442 6.6626C0.683817 6.05322 1.05882 5.44385 1.66819 5.30322C2.27757 5.1626 2.88694 5.5376 3.02757 6.14697L3.21507 6.8501C3.40257 7.69385 4.15257 8.25635 4.99632 8.25635H11.6526L4.19944 2.02197C3.73069 1.6001 3.68382 0.896973 4.05882 0.428223ZM16.5744 15.0063V21.0063C16.5744 21.4282 16.9026 21.7563 17.3244 21.7563H18.0744C18.4494 21.7563 18.8244 21.4282 18.8244 21.0063V12.897L14.3244 10.647V15.522L16.5744 15.0063ZM12.0744 10.5063H6.07444V21.0063C6.07444 21.4282 6.40257 21.7563 6.82444 21.7563H7.57444C7.94944 21.7563 8.32444 21.4282 8.32444 21.0063V15.0063L11.0432 15.6157C11.3713 15.7095 11.6994 15.7563 12.0744 15.7563V10.5063ZM16.5276 9.2876L19.0119 10.5063L19.2932 9.00635H23.3244C24.5432 9.00635 25.5744 8.02197 25.5744 6.75635V5.25635H23.1369L21.6369 3.75635H17.4651L16.5276 9.2876Z" fill="black"/>
</svg>
