<svg width="28" height="25" viewBox="0 0 28 25" fill="none" xmlns="http://www.w3.org/2000/svg">
<path d="M21.1457 5.26099C21.1457 5.68286 20.7707 6.01099 20.3957 6.01099C19.9739 6.01099 19.6457 5.68286 19.6457 5.26099C19.6457 4.88599 19.9739 4.51099 20.3957 4.51099C20.7707 4.51099 21.1457 4.88599 21.1457 5.26099ZM3.14573 10.3704C3.09886 10.3235 3.05198 10.3235 2.95823 10.3235C1.69261 9.85474 0.661356 8.77661 0.333231 7.41724L0.145731 6.66724C0.00510633 6.05786 0.380106 5.44849 0.989481 5.30786C1.59886 5.16724 2.20823 5.54224 2.34886 6.15161L2.53636 6.85474C2.72386 7.69849 3.47386 8.26099 4.31761 8.26099H13.7395L15.0051 0.714111C15.052 0.339111 15.427 0.0109863 15.8489 0.0109863C16.0832 0.0109863 16.3176 0.151611 16.5051 0.385986L17.3957 1.51099H20.9582C21.5207 1.51099 22.1301 1.79224 22.552 2.21411L23.3957 3.01099H24.8957C26.1145 3.01099 27.1457 4.04224 27.1457 5.26099V6.76099C27.1457 9.24536 25.1301 11.261 22.6457 11.261H20.4895L20.3957 12.011V21.011C20.3957 22.6985 19.0364 24.011 17.3957 24.011H16.6457C14.9582 24.011 13.6457 22.6985 13.6457 21.011V17.8235C13.1301 17.9172 12.6145 18.011 12.1457 18.011C12.0051 18.011 11.8645 18.011 11.7707 18.011C11.6301 18.011 11.4895 18.011 11.3957 18.011C10.8801 18.011 10.3645 17.9172 9.89573 17.8235V21.011C9.89573 22.6985 8.53636 24.011 6.89573 24.011H6.14573C4.45823 24.011 3.14573 22.6985 3.14573 21.011V10.511C3.14573 10.4641 3.14573 10.4172 3.14573 10.3704ZM15.8957 15.011V21.011C15.8957 21.4329 16.2239 21.761 16.6457 21.761H17.3957C17.7707 21.761 18.1457 21.4329 18.1457 21.011V12.9016L14.302 10.511H5.39573V21.011C5.39573 21.4329 5.72386 21.761 6.14573 21.761H6.89573C7.27073 21.761 7.64573 21.4329 7.64573 21.011V15.011L10.3645 15.6204C10.7864 15.7141 11.2551 15.761 11.7707 15.761C12.2395 15.761 12.7082 15.7141 13.1301 15.6204L15.8957 15.011ZM15.9426 8.91724L18.3801 10.4172L18.6145 9.01099H22.6457C23.8645 9.01099 24.8957 8.02661 24.8957 6.76099V5.26099H22.4582L20.9582 3.76099H16.7864L15.9426 8.91724Z" fill="black"/>
</svg>
