<svg width="18" height="24" viewBox="0 0 18 24" fill="none" xmlns="http://www.w3.org/2000/svg">
<path d="M9.25732 17.4836C9.8667 17.4836 10.3823 17.9993 10.3823 18.6086C10.3823 19.2649 9.8667 19.7336 9.25732 19.7336C6.53857 19.7336 4.38232 17.5774 4.38232 14.8586C4.38232 14.2493 4.85107 13.7336 5.50732 13.7336C6.1167 13.7336 6.63232 14.2493 6.63232 14.8586C6.63232 16.3118 7.8042 17.4836 9.25732 17.4836ZM17.1323 15.2336C17.1323 19.8274 13.4292 23.4836 8.88232 23.4836C4.28857 23.4836 0.632324 19.8274 0.632324 15.2336C0.632324 11.7649 5.41357 4.45239 7.66357 1.17114C8.27295 0.327393 9.44482 0.327393 10.0542 1.17114C12.3042 4.45239 17.1323 11.7649 17.1323 15.2336ZM14.2261 12.8899C13.8042 11.7649 13.1948 10.4993 12.4448 9.23364C11.2729 7.12427 9.91357 5.01489 8.88232 3.42114C7.8042 5.01489 6.44482 7.12427 5.27295 9.23364C4.52295 10.4993 3.91357 11.7649 3.4917 12.8899C3.02295 14.0149 2.88232 14.8118 2.88232 15.2336C2.88232 18.5618 5.5542 21.2336 8.88232 21.2336C12.1636 21.2336 14.8823 18.5618 14.8823 15.2336C14.8823 14.8118 14.6948 14.0149 14.2261 12.8899Z" fill="black"/>
</svg>
