<svg width="24" height="25" viewBox="0 0 24 25" fill="none" xmlns="http://www.w3.org/2000/svg">
<path d="M15.1323 14.272C16.1636 14.272 16.9136 15.1626 16.8667 16.1001C16.8667 16.6157 16.7261 17.0845 16.3511 17.4595L13.8198 20.1313C13.7261 20.2251 13.6323 20.272 13.4917 20.272C13.3979 20.272 13.3042 20.2251 13.2104 20.1313L10.6792 17.4595C10.3042 17.0845 10.1167 16.6157 10.1167 16.1001C10.1167 15.1157 10.8667 14.272 11.8979 14.272C12.4136 14.272 12.8823 14.4595 13.2573 14.8345L13.4917 15.1157L13.7729 14.8345C14.1479 14.4595 14.6167 14.272 15.1323 14.272ZM19.9136 3.77197C21.7417 3.77197 23.2886 5.31885 23.2886 7.14697V15.022C23.2886 19.9907 19.2104 24.022 14.2417 24.022H12.6948C10.0229 24.022 7.39795 22.897 5.56982 20.9282L1.77295 16.8501C1.1167 16.147 0.788574 15.2563 0.788574 14.3188C0.788574 12.2095 2.47607 10.522 4.53857 10.522C4.77295 10.522 5.00732 10.5688 5.28857 10.6157V4.89697C5.28857 3.06885 6.78857 1.52197 8.66357 1.52197C8.94482 1.52197 9.22607 1.56885 9.50732 1.6626C10.1167 0.678223 11.1948 0.0219727 12.4136 0.0219727C13.5854 0.0219727 14.6636 0.678223 15.2729 1.6626C15.5542 1.56885 15.8354 1.52197 16.1636 1.52197C17.6167 1.52197 18.8823 2.50635 19.3511 3.81885C19.5386 3.81885 19.7261 3.77197 19.9136 3.77197ZM21.0386 15.022V7.14697C21.0386 6.5376 20.5229 6.02197 19.8667 6.02197C19.2104 6.02197 18.7417 6.5376 18.7417 7.14697V12.022C18.7417 12.4438 18.3667 12.772 17.9917 12.772C17.5698 12.772 17.2417 12.4438 17.2417 12.022V4.89697C17.2417 4.2876 16.7261 3.77197 16.1167 3.77197C15.4604 3.77197 14.9917 4.2876 14.9917 4.89697V12.022C14.9917 12.4438 14.6167 12.772 14.2417 12.772C13.8667 12.772 13.5386 12.4438 13.5386 12.022V3.39697C13.5386 2.7876 13.0229 2.27197 12.4136 2.27197C11.7573 2.27197 11.2886 2.7876 11.2886 3.39697V12.022C11.2886 12.4438 10.8667 12.772 10.4917 12.772C10.0698 12.772 9.7417 12.4438 9.7417 12.022V4.89697C9.7417 4.2876 9.1792 3.77197 8.6167 3.77197C8.00732 3.77197 7.53857 4.2876 7.53857 4.89697V14.3657C7.53857 14.6001 7.35107 14.7407 7.1167 14.7407C7.02295 14.7407 6.9292 14.6938 6.88232 14.6001L5.6167 13.2876C5.33545 12.9595 4.91357 12.772 4.53857 12.772C3.9292 12.772 3.03857 13.2407 3.03857 14.272C3.03857 14.647 3.1792 15.0688 3.50732 15.397L7.21045 19.4282C8.66357 20.9282 10.6323 21.772 12.6948 21.772H14.2886C17.9917 21.772 21.0386 18.772 21.0386 15.022Z" fill="black"/>
</svg>
