<svg width="24" height="25" viewBox="0 0 24 25" fill="none" xmlns="http://www.w3.org/2000/svg">
<path d="M20.0586 3.76099C21.8867 3.76099 23.4336 5.30786 23.4336 7.13599V15.011C23.4336 19.9797 19.3555 24.011 14.3867 24.011H12.8398C10.168 24.011 7.54297 22.886 5.71484 20.9172L1.91797 16.8391C1.26172 16.136 0.933594 15.2454 0.933594 14.3079C0.933594 12.1985 2.62109 10.511 4.68359 10.511C4.91797 10.511 5.15234 10.5579 5.43359 10.6047V4.88599C5.43359 3.05786 6.93359 1.51099 8.80859 1.51099C9.08984 1.51099 9.37109 1.55786 9.65234 1.65161C10.2617 0.667236 11.3398 0.0109863 12.5586 0.0109863C13.7305 0.0109863 14.8086 0.667236 15.418 1.65161C15.6992 1.55786 15.9805 1.51099 16.3086 1.51099C17.7617 1.51099 19.0273 2.49536 19.4961 3.80786C19.6836 3.80786 19.8711 3.76099 20.0586 3.76099ZM21.1836 15.011H21.043V7.13599C21.043 6.52661 20.5742 6.01099 19.9648 6.01099C19.3555 6.01099 18.8867 6.52661 18.8867 7.13599V12.0579C18.8867 12.4329 18.5586 12.761 18.1836 12.761C17.7617 12.761 17.4336 12.4329 17.3398 12.0579V4.93286C17.3398 4.32349 16.8711 3.80786 16.2617 3.80786C15.6523 3.80786 15.1367 4.32349 15.1367 4.93286V12.0579C15.1367 12.4329 14.8086 12.761 14.4336 12.761C14.0117 12.761 13.6836 12.4329 13.5898 12.011V3.38599C13.5898 2.77661 13.1211 2.26099 12.5117 2.26099C11.9023 2.26099 11.4336 2.77661 11.4336 3.38599L11.3867 12.0579C11.3867 12.4329 11.0586 12.761 10.6836 12.761C10.2617 12.761 9.93359 12.4329 9.83984 12.011V4.88599C9.83984 4.27661 9.37109 3.76099 8.76172 3.76099C8.15234 3.76099 7.63672 4.27661 7.63672 4.88599V14.3547C7.63672 14.5891 7.49609 14.7297 7.26172 14.7297C7.16797 14.7297 7.07422 14.6829 7.02734 14.636L5.76172 13.3235C5.48047 12.9954 5.05859 12.8079 4.63672 12.8079C4.07422 12.8079 3.18359 13.2766 3.18359 14.3079C3.18359 14.6829 3.32422 15.0579 3.65234 15.386L7.35547 19.4172C8.80859 20.9172 10.7773 21.761 12.8398 21.761H14.4336C18.1367 21.761 21.1836 18.761 21.1836 15.011Z" fill="black"/>
</svg>
