<svg width="25" height="22" viewBox="0 0 25 22" fill="none" xmlns="http://www.w3.org/2000/svg">
<path d="M12.8613 18.9329L17.6426 14.011H20.7832L13.9394 21.0891C13.6113 21.3704 13.2363 21.511 12.8613 21.511C12.4863 21.511 12.1113 21.3704 11.7832 21.0891L4.98632 14.011H8.12695L12.8613 18.9329ZM22.6113 1.96411C25.5176 4.49536 25.6582 8.99536 23.0332 11.7141L22.2363 12.5579H16.8926L15.8613 10.4485L13.5176 15.136C13.2363 15.6985 12.3926 15.6516 12.1582 15.0891L9.48632 9.18286L8.08007 12.5579H3.53319L2.73632 11.7141C0.11132 8.99536 0.251945 4.49536 3.15819 1.96411C4.28319 0.979736 5.73632 0.510986 7.14257 0.510986C8.87695 0.510986 10.6582 1.26099 11.9707 2.57349L12.9082 3.55786L13.7988 2.57349C15.1113 1.26099 16.8926 0.510986 18.6269 0.510986C20.0332 0.510986 21.4863 0.979736 22.6113 1.96411ZM21.3926 10.1672C22.9394 8.57349 23.2676 5.52661 21.1113 3.69849C19.2363 2.05786 16.6582 2.90161 15.4394 4.16724L12.9082 6.79224L10.3301 4.16724C9.11132 2.85474 6.53319 2.05786 4.65819 3.69849C2.50194 5.52661 2.87694 8.57349 4.37694 10.1672L5.2207 11.0579H7.0957L8.7832 6.97974C9.01757 6.37036 9.86132 6.37036 10.1426 6.97974L12.8613 13.0266L15.1582 8.43286C15.4394 7.91724 16.2363 7.91724 16.5176 8.43286L17.7832 11.0579H20.5488L21.3926 10.1672Z" fill="black"/>
</svg>
