<svg width="25" height="22" viewBox="0 0 25 22" fill="none" xmlns="http://www.w3.org/2000/svg">
<path d="M12.3394 2.69347L12.855 3.25597L13.4175 2.74035C14.9644 1.19347 17.1675 0.490349 19.2769 0.865349C22.5112 1.38097 24.9019 4.19347 24.9019 7.47472V7.7091C24.9019 9.67785 24.0581 11.5528 22.6519 12.8653L14.1675 20.7872C13.8394 21.1153 13.3706 21.256 12.9019 21.256C12.3862 21.256 11.9175 21.1153 11.5894 20.7872L3.10498 12.8653C1.69873 11.5528 0.901855 9.67785 0.901855 7.7091V7.47472C0.901855 4.19347 3.24561 1.38097 6.47998 0.865349C8.58936 0.490349 10.7925 1.19347 12.3394 2.69347C12.3394 2.74035 12.2925 2.69347 12.3394 2.69347ZM12.855 6.44347L10.7456 4.28722C9.71436 3.30285 8.26123 2.8341 6.85498 3.06847C4.69873 3.44347 3.15186 5.2716 3.15186 7.47472V7.7091C3.15186 9.06847 3.66748 10.3341 4.65186 11.2247L12.9019 18.9122L21.105 11.2247C22.0894 10.3341 22.6519 9.06847 22.6519 7.7091V7.47472C22.6519 5.2716 21.0581 3.44347 18.9019 3.06847C17.4956 2.8341 16.0425 3.30285 15.0112 4.28722L12.855 6.44347Z" fill="black"/>
</svg>
