<svg width="28" height="24" viewBox="0 0 28 24" fill="none" xmlns="http://www.w3.org/2000/svg">
<path d="M26.7256 10.7747C27.1943 11.1965 27.2412 11.8997 26.8662 12.3684C26.4443 12.8372 25.7412 12.884 25.2725 12.509L24.1475 11.5247V20.2434C24.1475 22.3528 22.46 23.9934 20.3975 23.9934H6.89746C4.78809 23.9934 3.14746 22.3528 3.14746 20.2434V11.5247L1.97559 12.509C1.50684 12.884 0.803711 12.8372 0.381836 12.3684C0.00683594 11.8997 0.0537109 11.1965 0.522461 10.7747L12.8975 0.274658C13.3193 -0.0534668 13.9287 -0.0534668 14.3506 0.274658L26.7256 10.7747ZM6.89746 21.7434H9.14746V14.6184C9.14746 13.5872 9.94434 12.7434 11.0225 12.7434H16.2725C17.3037 12.7434 18.1475 13.5872 18.1475 14.6184V21.7434H20.3975C21.1943 21.7434 21.8975 21.0872 21.8975 20.2434V9.60278L13.6475 2.61841L5.39746 9.60278V20.2434C5.39746 21.0872 6.05371 21.7434 6.89746 21.7434ZM11.3975 21.7434H15.8975V14.9934H11.3975V21.7434Z" fill="black"/>
</svg>
