<svg width="20" height="22" viewBox="0 0 20 22" fill="none" xmlns="http://www.w3.org/2000/svg">
<path d="M18.5229 16.8345C18.8979 16.8345 19.1792 17.3032 18.8979 17.6782C16.9292 20.0688 13.9761 21.522 10.7417 21.522C4.97607 21.522 0.288574 16.8345 0.288574 11.022C0.288574 5.25635 4.97607 0.521973 10.7886 0.521973C11.3511 0.521973 12.1948 0.615723 12.7104 0.709473C13.1792 0.803223 13.2729 1.4126 12.8511 1.64697C10.2729 3.1001 8.72607 5.81885 8.72607 8.77197C8.72607 13.4126 12.4292 17.022 16.8823 17.022C17.3979 17.022 17.9136 16.9751 18.4292 16.8813C18.4761 16.8345 18.4761 16.8345 18.5229 16.8345ZM10.7417 19.272C11.7729 19.272 12.7573 19.1313 13.6948 18.7563C9.47607 17.397 6.4292 13.4595 6.4292 8.77197C6.4292 6.80322 6.9917 4.88135 7.97607 3.2876C4.78857 4.4126 2.53857 7.45947 2.53857 11.022C2.53857 15.5688 6.19482 19.272 10.7417 19.272Z" fill="black"/>
</svg>
