<svg width="26" height="25" viewBox="0 0 26 25" fill="none" xmlns="http://www.w3.org/2000/svg">
<path d="M12.7781 0C13.2469 0 13.6219 0.28125 13.8094 0.65625L17.0438 7.26562L24.2156 8.34375C24.6375 8.39062 24.9656 8.71875 25.1063 9.09375C25.2469 9.51562 25.1531 9.9375 24.825 10.2656L19.6219 15.4219L20.8406 22.6875C20.9344 23.1094 20.7469 23.5781 20.4188 23.8125C20.0438 24.0469 19.575 24.0938 19.2 23.9062L12.7781 20.4375L6.35625 23.9062C5.98125 24.0938 5.55937 24.0469 5.18437 23.8125C4.85625 23.5781 4.66875 23.1094 4.71562 22.6875L5.98125 15.4219L0.778125 10.2656C0.45 9.9375 0.35625 9.51562 0.496875 9.09375C0.6375 8.71875 0.965625 8.39062 1.3875 8.34375L8.55937 7.26562L11.7937 0.65625C11.9812 0.28125 12.3562 0 12.7781 0ZM12.7781 3.70312L10.3406 8.8125C10.1531 9.14062 9.87187 9.375 9.49687 9.42188L3.91875 10.2188L7.95 14.2031C8.23125 14.4844 8.325 14.8594 8.27812 15.2344L7.34062 20.8125L12.2625 18.1875C12.5906 18 13.0125 18 13.3406 18.1875L18.2625 20.8125L17.325 15.2344C17.2313 14.8594 17.3719 14.4844 17.6531 14.2031L21.6375 10.2188L16.1062 9.42188C15.7312 9.375 15.4031 9.14062 15.2625 8.8125L12.7781 3.70312Z" fill="black"/>
</svg>
