<svg width="25" height="25" viewBox="0 0 25 25" fill="none" xmlns="http://www.w3.org/2000/svg">
<path d="M24.437 3.38525C24.9058 3.80713 24.9058 4.51025 24.437 4.93213C24.2495 5.1665 23.9683 5.26025 23.687 5.26025C23.3589 5.26025 23.0776 5.1665 22.8901 4.93213L22.187 4.229L20.3589 6.01025L22.937 8.63525C23.4058 9.05713 23.4058 9.76025 22.937 10.1821C22.7495 10.4165 22.4683 10.5103 22.187 10.5103C21.9526 10.5103 21.7183 10.4634 21.5308 10.3228L11.1245 20.6821C10.8901 20.9165 10.6089 21.0103 10.3276 21.0103H5.35889L2.68701 23.6821C2.49951 23.9165 2.21826 24.0103 1.93701 24.0103C1.60889 24.0103 1.32764 23.9165 1.14014 23.729C0.671387 23.2603 0.671387 22.5571 1.14014 22.1353L3.81201 19.4634V14.4946C3.81201 14.2134 3.90576 13.9321 4.14014 13.6978L14.4995 3.2915C14.2183 2.86963 14.2183 2.26025 14.6401 1.88525C15.062 1.4165 15.7651 1.4165 16.187 1.88525L18.812 4.46338L20.5933 2.63525L19.8433 1.93213C19.3745 1.51025 19.3745 0.807129 19.8433 0.385254C20.2651 -0.0834961 20.9683 -0.0834961 21.437 0.385254L24.437 3.38525ZM9.85889 18.7603L19.8901 8.729L16.0933 4.93213L14.4058 6.61963L15.5776 7.74463C15.8589 8.02588 15.8589 8.5415 15.5776 8.82275C15.437 8.96338 15.2495 9.01025 15.062 9.01025C14.8276 9.01025 14.6401 8.96338 14.4995 8.82275L13.3745 7.65088L11.4058 9.61963L12.5776 10.7446C12.8589 11.0259 12.8589 11.5415 12.5776 11.8228C12.437 11.9634 12.2495 12.0103 12.062 12.0103C11.8276 12.0103 11.6401 11.9634 11.4995 11.8228L10.3745 10.6509L8.40576 12.6196L9.57764 13.7446C9.85889 14.0259 9.85889 14.5415 9.57764 14.8228C9.43701 14.9634 9.24951 15.0103 9.06201 15.0103C8.82764 15.0103 8.64014 14.9634 8.49951 14.8228L7.37451 13.6509L6.06201 14.9634V18.7603H9.85889Z" fill="black"/>
</svg>
