<svg width="25" height="25" viewBox="0 0 25 25" fill="none" xmlns="http://www.w3.org/2000/svg">
<path d="M12.9336 0.0109863C19.5898 0.0109863 24.9336 5.40161 24.9336 12.011C24.9336 18.6672 19.543 24.011 12.9336 24.011C6.27734 24.011 0.933594 18.6672 0.933594 12.011C0.933594 5.40161 6.27734 0.0109863 12.9336 0.0109863ZM11.0586 2.49536C7.16797 3.24536 4.16797 6.29224 3.41797 10.136C4.91797 10.136 6.41797 9.66724 7.73047 8.72974C9.83984 7.22974 10.9648 4.88599 11.0586 2.49536ZM3.23047 12.386C3.41797 17.4954 7.49609 21.5735 12.5586 21.761C12.5586 17.0735 16.2148 11.6829 22.6367 11.6829C22.4961 6.57349 18.418 2.49536 13.3086 2.30786C13.3086 7.04224 9.65234 12.386 3.23047 12.386ZM14.9023 21.5735C18.7461 20.8235 21.7461 17.7766 22.543 13.9329C20.9961 13.9797 19.4961 14.4016 18.1836 15.3391C16.0742 16.8391 14.9492 19.1829 14.9023 21.5735Z" fill="black"/>
</svg>
