<svg width="31" height="25" viewBox="0 0 31 25" fill="none" xmlns="http://www.w3.org/2000/svg">
<path d="M30.1739 16.8032C30.8302 17.6001 30.9708 18.6313 30.5489 19.5688C30.1739 20.4595 29.2833 21.022 28.2989 21.022H21.4552V22.897C21.4552 23.5532 20.9395 24.022 20.3302 24.022C19.7208 24.022 19.2052 23.5532 19.2052 22.9438V21.022H12.4552V22.897C12.4552 23.5532 11.9395 24.022 11.3302 24.022C10.7208 24.022 10.2052 23.5532 10.2052 22.9438V21.022H3.31454C2.33017 21.022 1.43954 20.4595 1.06454 19.5688C0.642668 18.6313 0.783293 17.6001 1.43954 16.8032L3.12704 14.8813C2.79892 14.647 2.56454 14.3657 2.37704 13.9907C2.00204 13.147 2.09579 12.1626 2.70517 11.4595L4.15829 9.77197C3.97079 9.58447 3.78329 9.30322 3.64267 9.06885C3.31454 8.31885 3.50204 7.4751 4.01767 6.86572L9.68954 0.771973C10.0645 0.303223 10.6739 0.0219727 11.3302 0.0219727C11.9395 0.0219727 12.5489 0.303223 12.9239 0.771973L18.5958 6.86572C19.1583 7.4751 19.2989 8.31885 18.9708 9.06885C18.8302 9.30322 18.6427 9.58447 18.4552 9.77197L19.9083 11.4595C20.5177 12.1626 20.6114 13.147 20.2364 13.9907C20.0958 14.3657 19.8145 14.647 19.4864 14.8813L21.1739 16.8032C21.6427 17.3657 21.877 18.0688 21.7833 18.772H28.2989C28.3927 18.772 28.4864 18.7251 28.5333 18.6313C28.5333 18.5845 28.5802 18.4438 28.4864 18.3032L23.9864 13.1001H27.0802L23.0489 8.08447H25.627L20.2833 2.27197L18.3614 4.38135L16.8145 2.74072L18.6895 0.771973C19.0645 0.303223 19.6739 0.0219727 20.3302 0.0219727C20.9395 0.0219727 21.5489 0.303223 21.9239 0.771973L27.5958 6.86572C28.1583 7.4751 28.2989 8.31885 27.9708 9.06885C27.8302 9.30322 27.6427 9.58447 27.4552 9.77197L28.9083 11.4595C29.5177 12.1626 29.6583 13.147 29.2364 13.9907C29.0958 14.3657 28.8145 14.647 28.4864 14.8813L30.1739 16.8032ZM12.4552 18.772H19.2989C19.3927 18.772 19.4864 18.7251 19.5333 18.6313C19.5333 18.5845 19.5802 18.4438 19.4864 18.3032L14.9864 13.1001H18.0802L14.0489 8.08447H16.627L11.2833 2.27197L5.98642 8.08447H8.56454L4.53329 13.1001H7.62704L3.12704 18.3032C3.03329 18.4438 3.08017 18.5845 3.08017 18.6313C3.12704 18.7251 3.22079 18.772 3.31454 18.772H10.2052L10.1583 14.0376L8.23642 12.0688C7.76767 11.647 7.76767 10.9438 8.23642 10.4751C8.65829 10.0532 9.36142 10.0532 9.83017 10.4751L10.2052 10.8501V8.64697C10.1583 8.0376 10.6739 7.52197 11.2833 7.52197C11.9395 7.52197 12.4083 8.0376 12.4083 8.64697L12.4552 14.5532L12.7833 14.272C13.2052 13.8032 13.9083 13.8032 14.3302 14.272C14.7989 14.6938 14.7989 15.397 14.3302 15.8188L12.4552 17.7407V18.772Z" fill="black"/>
</svg>
