<svg width="25" height="22" viewBox="0 0 25 22" fill="none" xmlns="http://www.w3.org/2000/svg">
<path d="M24.6704 18.5579C25.4204 19.8704 24.4829 21.511 22.9361 21.511H2.92045C1.37357 21.511 0.436072 19.8704 1.1392 18.5579L11.1704 1.49536C11.5923 0.839111 12.2486 0.510986 12.9517 0.510986C13.6079 0.510986 14.2642 0.839111 14.6861 1.49536L24.6704 18.5579ZM3.3892 19.261H22.4673L12.9048 2.99536L3.3892 19.261ZM12.9517 14.8547C13.7486 14.8547 14.4048 15.511 14.4048 16.3079C14.4048 17.1047 13.7486 17.761 12.9517 17.761C12.1079 17.761 11.4517 17.1047 11.4517 16.3079C11.4517 15.511 12.1079 14.8547 12.9517 14.8547ZM11.8267 7.63599C11.8267 7.02661 12.2954 6.51099 12.9517 6.51099C13.5611 6.51099 14.0767 7.02661 14.0767 7.63599V12.136C14.0767 12.7922 13.5611 13.261 12.9517 13.261C12.2954 13.261 11.8267 12.7922 11.8267 12.136V7.63599Z" fill="black"/>
</svg>
