<svg width="31" height="19" viewBox="0 0 31 19" fill="none" xmlns="http://www.w3.org/2000/svg">
<path d="M29.5605 12.3391C29.8887 12.6204 30.123 12.9954 30.123 13.4641C30.1699 13.886 30.0293 14.3079 29.7012 14.5891L26.7012 17.5891C26.4199 17.8704 26.0449 18.011 25.6699 18.011C25.4355 18.011 25.2012 17.9641 24.9199 17.8704L17.8418 14.3547C16.248 16.5579 13.5762 18.011 10.623 18.011C5.6543 18.011 1.62305 13.9797 1.62305 9.01099C1.62305 7.93286 1.85742 6.85474 2.23242 5.87036C1.01367 5.49536 0.169922 4.37036 0.169922 3.01099C0.169922 1.37036 1.48242 0.0109863 3.12305 0.0109863C4.24805 0.0109863 5.18555 0.620361 5.70117 1.51099C7.1543 0.573486 8.8418 0.0109863 10.6699 0.0109863C12.6855 0.0109863 14.5605 0.714111 16.0605 1.83911L29.5605 12.3391ZM3.4043 3.71411C3.54492 3.52661 3.68555 3.29224 3.82617 3.10474C3.82617 3.10474 3.87305 3.05786 3.87305 3.01099C3.87305 2.63599 3.49805 2.26099 3.12305 2.26099C2.70117 2.26099 2.37305 2.63599 2.37305 3.01099C2.37305 3.43286 2.74805 3.76099 3.12305 3.76099C3.2168 3.76099 3.31055 3.76099 3.4043 3.71411ZM25.4824 15.6204L27.4512 13.6047L20.2324 7.97974L19.7637 8.58911C19.5293 8.87036 19.2012 9.01099 18.873 9.01099C18.6387 9.01099 18.4043 8.96411 18.2168 8.82349C17.748 8.44849 17.6074 7.74536 17.9824 7.22974L18.498 6.57349L14.7012 3.66724C14.7012 3.62036 14.6543 3.62036 14.6543 3.62036C13.5293 2.77661 12.123 2.26099 10.6699 2.26099C6.91992 2.26099 3.91992 5.30786 3.91992 9.01099C3.91992 12.761 6.91992 15.761 10.6699 15.761C11.0918 15.761 11.4668 15.7141 11.8887 15.6672C11.9355 15.6672 12.0293 15.6204 12.0762 15.6204C12.4512 15.5266 12.8262 15.4329 13.2012 15.2922C13.248 15.2454 13.2949 15.2454 13.3887 15.1985C13.7168 15.0579 14.0918 14.8704 14.373 14.636C14.4199 14.636 14.4668 14.5891 14.5137 14.5422C14.748 14.4016 15.0293 14.1672 15.2637 13.9329C15.3574 13.886 15.4043 13.7922 15.498 13.6985C15.7324 13.4641 15.9199 13.2766 16.1074 12.9954L17.2324 11.4954L25.4824 15.6204ZM10.6699 6.76099C11.8887 6.76099 12.9199 7.79224 12.873 9.01099C12.873 10.2297 11.8418 11.261 10.623 11.261C9.4043 11.261 8.41992 10.2766 8.41992 9.01099C8.41992 7.79224 9.4043 6.76099 10.6699 6.76099Z" fill="black"/>
</svg>
